<svg xmlns="http://www.w3.org/2000/svg" viewBox="0 0 200 50" width="200" height="50">
  <!-- Fundo do logo -->
  <rect width="200" height="50" rx="10" fill="#ffffff" />
  
  <!-- Círculo do WhatsApp -->
  <circle cx="30" cy="25" r="15" fill="#25D366" />
  
  <!-- Ícone do telefone/fone dentro do círculo -->
  <path d="M36 29.5c-.3-.2-1.6-.8-1.9-.9-.3-.1-.5-.2-.7.2-.2.3-.8 1-.9 1.2-.2.2-.3.2-.6 0-.3-.1-1.3-.5-2.4-1.5-.9-.8-1.5-1.7-1.7-2-.2-.3 0-.4.1-.6.1-.1.3-.3.4-.5.1-.2.2-.3.3-.5 0-.2 0-.4-.1-.6-.1-.2-.7-1.6-1-2.2-.2-.6-.5-.5-.7-.5h-.6c-.2 0-.5.1-.8.4-.3.3-1 1-1 2.4s1 2.8 1.2 3c.1.2 1.7 2.6 4.2 3.6 2.5 1 2.5.7 3 .6.5-.1 1.5-.6 1.7-1.2.2-.6.2-1.1.1-1.2-.1-.1-.3-.2-.6-.3z" fill="#ffffff" />
  
  <!-- Texto "Multi Atendimento" -->
  <text x="55" y="25" font-family="Arial, sans-serif" font-size="16" font-weight="bold" fill="#333333" dominant-baseline="middle">Multi</text>
  <text x="55" y="40" font-family="Arial, sans-serif" font-size="16" font-weight="bold" fill="#25D366" dominant-baseline="middle">Atendimento</text>
  
  <!-- Ícones de chat múltiplo -->
  <circle cx="170" cy="20" r="5" fill="#25D366" opacity="0.8" />
  <circle cx="180" cy="15" r="4" fill="#25D366" opacity="0.6" />
  <circle cx="175" cy="30" r="6" fill="#25D366" opacity="1" />
</svg>